<?xml version="1.0" encoding="UTF-8"?>
<svg width="354px" height="90px" viewBox="0 0 354 90" version="1.1" xmlns="http://www.w3.org/2000/svg" xmlns:xlink="http://www.w3.org/1999/xlink">
    <!-- Generator: Sketch 49 (51002) - http://www.bohemiancoding.com/sketch -->
    <title>Group</title>
    <desc>Created with Sketch.</desc>
    <defs></defs>
    <g id="Page-1" stroke="none" stroke-width="1" fill="none" fill-rule="evenodd">
        <g id="Group" fill-rule="nonzero">
            <g id="Tatau-Sign" fill="#57C734">
                <g id="path0_fill-link" transform="translate(19.000000, 0.000000)">
                    <path d="M38.2363,41.3232 C42.9609,33.0803 50.7148,26.8105 59.9727,24.0483 C57.2227,10.3308 45.1562,0 30.6855,0 C14.7617,0 1.7461,12.511 0.8574,28.2786 C3.9668,27.3108 7.4434,26.7505 10.8262,26.739 C22.2305,26.739 32.2793,32.5217 38.2363,41.3232 Z" id="path0_fill"></path>
                </g>
                <g id="path1_fill-link" transform="translate(59.000000, 30.000000)">
                    <path d="M60.502,30 C60.502,46.5686 47.125,60 30.625,60 L0.75,60 L0.75,30 C0.75,13.4314 14.125,0 30.625,0 C47.125,0 60.502,13.4314 60.502,30 Z" id="path1_fill"></path>
                </g>
                <g id="path2_fill-link" transform="translate(0.000000, 33.000000)">
                    <path d="M49.6367,30.2607 C50.5117,30.2585 51.3984,30.2192 52.2812,30.146 L52.2812,57 L29.875,57 C13.375,57 0,43.5684 0,27 C0,15.1978 6.78711,4.9878 16.6543,0.0898 C18.207,17.012 32.3809,30.2607 49.6367,30.2607 Z" id="path2_fill"></path>
                </g>
                <g id="path3_fill-link" transform="translate(24.000000, 34.000000)">
                    <path d="M29.7578,15.5261 C29.1914,17.4888 28.7793,19.5181 28.5371,21.5994 L27.668,21.6711 C26.9336,21.7336 26.3477,21.76 25.6367,21.7607 C13.1016,21.7607 2.6641,12.7319 0.4258,0.8013 C2.166,0.4143 3.8965,0.2312 5.8262,0.2388 C14.6523,0.239 22.4336,4.7036 27.0605,11.5391 L29.7578,15.5261 Z" id="path3_fill"></path>
                </g>
            </g>
            <g id="Tatau-Letters-2" transform="translate(150.000000, 18.000000)" fill="#000000">
                <polygon id="path0_fill" points="25.6426 6.23451 25.6426 0.641 0.5 0.641 0.5 6.23451 9.98633 6.23451 9.98633 53.8595 16.082 53.8595 16.082 6.23451"></polygon>
                <path d="M61.7754,40.8844 L64.3906,53.8595 L70.6562,53.8595 L59.2988,0.641 L52.293,0.641 L41.0879,53.8595 L47.0527,53.8595 L49.668,40.8844 L61.7754,40.8844 Z M60.7363,35.441 L50.707,35.441 L55.7227,10.33454 L60.7363,35.441 Z" id="path1_fill"></path>
                <polygon id="path2_fill" points="111.273 6.23451 111.273 0.641 86.1328 0.641 86.1328 6.23451 95.6172 6.23451 95.6172 53.8595 101.715 53.8595 101.715 6.23451"></polygon>
                <path d="M147.408,40.8844 L150.023,53.8595 L156.287,53.8595 L144.932,0.641 L137.926,0.641 L126.721,53.8595 L132.686,53.8595 L135.299,40.8844 L147.408,40.8844 Z M146.369,35.441 L136.34,35.441 L141.354,10.33454 L146.369,35.441 Z" id="path3_fill"></path>
                <path d="M203.404,43.0003 L203.404,0.641 L197.309,0.641 L197.309,41.6502 C197.309,44.3639 196.842,46.1428 195.842,47.25 C194.85,48.3474 193.26,48.866 190.795,48.866 C188.332,48.866 186.742,48.3474 185.75,47.25 C184.75,46.1428 184.283,44.3639 184.283,41.6502 L184.283,0.641 L178.188,0.641 L178.188,43.0003 C178.188,46.9259 179.252,49.8156 181.389,51.7156 C183.518,53.6079 186.646,54.4595 190.646,54.4595 L190.945,54.4595 C194.947,54.4595 198.076,53.5884 200.203,51.6868 C202.34,49.7781 203.404,46.8894 203.404,43.0003 Z" id="path4_fill"></path>
            </g>
        </g>
    </g>
</svg>